Coordinates
version=1
nRows=13
nColumns=38
inDegrees=yes

Units are S.I. units (second, meters, Newtons, ...)
Angles are in degrees.

endheader
time	pelvis_tilt	pelvis_list	pelvis_rotation	pelvis_tx	pelvis_ty	pelvis_tz	hip_flexion_r	hip_adduction_r	hip_rotation_r	knee_angle_r	ankle_angle_r	subtalar_angle_r	mtp_angle_r	hip_flexion_l	hip_adduction_l	hip_rotation_l	knee_angle_l	ankle_angle_l	subtalar_angle_l	mtp_angle_l	lumbar_extension	lumbar_bending	lumbar_rotation	arm_flex_r	arm_add_r	arm_rot_r	elbow_flex_r	pro_sup_r	wrist_flex_r	wrist_dev_r	arm_flex_l	arm_add_l	arm_rot_l	elbow_flex_l	pro_sup_l	wrist_flex_l	wrist_dev_l
      2.29000000	     12.15852636	     -1.09454260	     -1.54418924	     -0.01366377	      0.91491425	     -0.00911158	    -16.42230768	      1.53390654	     -5.94665763	     -1.82348888	     -0.51759204	      0.00000000	      0.00000000	    -15.37072224	      0.16457076	    -10.81157639	     -3.88248827	     -0.66782883	      0.00000000	      0.00000000	    -20.43744870	     -0.62350048	      3.66625201	     -0.50366480	     -2.24236629	    -22.81852962	     31.91285256	    110.62490077	      0.00000000	      0.00000000	      2.40201872	     -2.25973226	    -24.92910911	     30.88836342	    101.98597650	      0.00000000	      0.00000000
      2.30000000	     12.15747497	     -1.09608889	     -1.54721526	     -0.01363779	      0.91491532	     -0.00908436	    -16.42384041	      1.53645670	     -5.94257844	     -1.82301266	     -0.51276741	      0.00000000	      0.00000000	    -15.37338672	      0.16258233	    -10.81356437	     -3.88046083	     -0.67017546	      0.00000000	      0.00000000	    -20.44088167	     -0.62061578	      3.66327475	     -0.49644674	     -2.24084922	    -22.81479782	     31.91865845	    110.60191327	      0.00000000	      0.00000000	      2.40787266	     -2.26419095	    -24.92023750	     30.89102299	    101.97997410	      0.00000000	      0.00000000
      2.31000000	     12.15495519	     -1.09751528	     -1.54978067	     -0.01360491	      0.91490611	     -0.00905590	    -16.42413270	      1.53862547	     -5.93875982	     -1.82100113	     -0.50845796	      0.00000000	      0.00000000	    -15.37456299	      0.16094482	    -10.81511487	     -3.87782021	     -0.67263439	      0.00000000	      0.00000000	    -20.44243830	     -0.61747527	      3.66086956	     -0.48949952	     -2.23971552	    -22.80957430	     31.92153350	    110.57993718	      0.00000000	      0.00000000	      2.41483683	     -2.26740315	    -24.90899745	     30.89331954	    101.97424200	      0.00000000	      0.00000000
      2.32000000	     12.15097158	     -1.09908595	     -1.55171354	     -0.01356632	      0.91488994	     -0.00902959	    -16.42316374	      1.54101869	     -5.93512109	     -1.81798192	     -0.50501984	      0.00000000	      0.00000000	    -15.37425736	      0.15915385	    -10.81662418	     -3.87452231	     -0.67538688	      0.00000000	      0.00000000	    -20.44165739	     -0.61434766	      3.65910019	     -0.48340263	     -2.23925922	    -22.80193198	     31.92177228	    110.55897026	      0.00000000	      0.00000000	      2.42291659	     -2.26861759	    -24.89571128	     30.89534336	    101.96890094	      0.00000000	      0.00000000
      2.33000000	     12.14571667	     -1.10073657	     -1.55321936	     -0.01352447	      0.91487561	     -0.00900684	    -16.42146895	      1.54400863	     -5.93157037	     -1.81475174	     -0.50269917	      0.00000000	      0.00000000	    -15.37292844	      0.15691250	    -10.81862230	     -3.87077962	     -0.67827222	      0.00000000	      0.00000000	    -20.43872153	     -0.61159972	      3.65815573	     -0.47832253	     -2.23959228	    -22.79114020	     31.91995308	    110.53899143	      0.00000000	      0.00000000	      2.43189088	     -2.26750702	    -24.88075467	     30.89738684	    101.96398884	      0.00000000	      0.00000000
      2.34000000	     12.13976458	     -1.10224330	     -1.55486821	     -0.01348027	      0.91486879	     -0.00898579	    -16.41948488	      1.54729727	     -5.92801306	     -1.81178699	     -0.50155376	      0.00000000	      0.00000000	    -15.37131364	      0.15431128	    -10.82158819	     -3.86689894	     -0.68092036	      0.00000000	      0.00000000	    -20.43447275	     -0.60953222	      3.65831944	     -0.47397402	     -2.24060211	    -22.77680533	     31.91682217	    110.51996919	      0.00000000	      0.00000000	      2.44119616	     -2.26445769	    -24.86455268	     30.89984094	    101.95944284	      0.00000000	      0.00000000
      2.35000000	     12.13379755	     -1.10342088	     -1.55740357	     -0.01343557	      0.91486974	     -0.00896420	    -16.41730916	      1.55009441	     -5.92434681	     -1.80906839	     -0.50146075	      0.00000000	      0.00000000	    -15.37004014	      0.15186744	    -10.82573977	     -3.86306568	     -0.68294708	      0.00000000	      0.00000000	    -20.43016287	     -0.60825486	      3.65981221	     -0.46975765	     -2.24196695	    -22.75895416	     31.91316333	    110.50188022	      0.00000000	      0.00000000	      2.44998548	     -2.26050556	    -24.84758565	     30.90305005	    101.95508455	      0.00000000	      0.00000000
      2.36000000	     12.12817344	     -1.10421643	     -1.56143063	     -0.01339753	      0.91487177	     -0.00894018	    -16.41495812	      1.55172279	     -5.92045087	     -1.80639452	     -0.50220464	      0.00000000	      0.00000000	    -15.36927936	      0.15032963	    -10.83090516	     -3.85926787	     -0.68410829	      0.00000000	      0.00000000	    -20.42694080	     -0.60764574	      3.66255752	     -0.46502381	     -2.24326255	    -22.73804950	     31.90966383	    110.48473597	      0.00000000	      0.00000000	      2.45742184	     -2.25685676	    -24.83038527	     30.90716057	    101.95061442	      0.00000000	      0.00000000
      2.37000000	     12.12296290	     -1.10468572	     -1.56714137	     -0.01336966	      0.91486520	     -0.00891199	    -16.41243579	      1.55205164	     -5.91617286	     -1.80369422	     -0.50357007	      0.00000000	      0.00000000	    -15.36873665	      0.15015166	    -10.83654987	     -3.85542160	     -0.68436881	      0.00000000	      0.00000000	    -20.42535161	     -0.60744663	      3.66599212	     -0.45937856	     -2.24412427	    -22.71493910	     31.90679118	    110.46861224	      0.00000000	      0.00000000	      2.46311447	     -2.25421825	    -24.81350517	     30.91201702	    101.94562220	      0.00000000	      0.00000000
      2.38000000	     12.11803520	     -1.10493129	     -1.57419139	     -0.01334586	      0.91484898	     -0.00888052	    -16.40968666	      1.55148534	     -5.91136913	     -1.80112170	     -0.50538454	      0.00000000	      0.00000000	    -15.36800346	      0.15102602	    -10.84196746	     -3.85157848	     -0.68389235	      0.00000000	      0.00000000	    -20.42515682	     -0.60742147	      3.66916612	     -0.45290639	     -2.24437313	    -22.69074659	     31.90470783	    110.45367440	      0.00000000	      0.00000000	      2.46738619	     -2.25243406	    -24.79747371	     30.91715423	    101.93961866	      0.00000000	      0.00000000
      2.39000000	     12.11305934	     -1.10509247	     -1.58170533	     -0.01332070	      0.91483228	     -0.00884957	    -16.40669802	      1.55068971	     -5.90602315	     -1.79895275	     -0.50750604	      0.00000000	      0.00000000	    -15.36683389	      0.15208506	    -10.84655680	     -3.84798838	     -0.68298110	      0.00000000	      0.00000000	    -20.42557180	     -0.60740253	      3.67123896	     -0.44617815	     -2.24404667	    -22.66671854	     31.90325343	    110.44019087	      0.00000000	      0.00000000	      2.47112785	     -2.25071299	    -24.78274244	     30.92190269	    101.93208777	      0.00000000	      0.00000000
      2.40000000	     12.10781612	     -1.10530609	     -1.58848991	     -0.01329343	      0.91482213	     -0.00882245	    -16.40348860	      1.55032705	     -5.90036294	     -1.79728166	     -0.50977372	      0.00000000	      0.00000000	    -15.36507470	      0.15261754	    -10.85004916	     -3.84494314	     -0.68199133	      0.00000000	      0.00000000	    -20.42576648	     -0.60726841	      3.67202640	     -0.44001469	     -2.24334423	    -22.64405274	     31.90201107	    110.42852848	      0.00000000	      0.00000000	      2.47540680	     -2.24815948	    -24.76961917	     30.92558095	    101.92255228	      0.00000000	      0.00000000
      2.41000000	     12.10235760	     -1.10555872	     -1.59346422	     -0.01326398	      0.91481869	     -0.00880131	    -16.40003521	      1.55075942	     -5.89487130	     -1.79577257	     -0.51197009	      0.00000000	      0.00000000	    -15.36259298	      0.15248329	    -10.85258632	     -3.84257367	     -0.68125126	      0.00000000	      0.00000000	    -20.42531783	     -0.60697677	      3.67215886	     -0.43513845	     -2.24252802	    -22.62374355	     31.90044507	    110.41912613	      0.00000000	      0.00000000	      2.48110385	     -2.24419294	    -24.75818037	     30.92771414	    101.91064053	      0.00000000	      0.00000000
